<svg width="128" height="128" viewBox="0 0 128 128" fill="none" xmlns="http://www.w3.org/2000/svg">
<g clip-path="url(#clip0_2002_752)">
<path d="M0 32C0 14.3269 14.3269 0 32 0H96C113.673 0 128 14.3269 128 32V96C128 113.673 113.673 128 96 128H32C14.3269 128 0 113.673 0 96V32Z" fill="#303030"/>
<path fill-rule="evenodd" clip-rule="evenodd" d="M38.1262 23L61.5314 44.5789V23.0498H66.0875V44.6755L89.5976 23V47.6032H99.25V83.0909H89.6272V104.999L66.0875 84.3036V105.236H61.5314V84.6448L38.1527 105.25V83.0909H28.5V47.6032H38.1262V23ZM58.0967 52.1066H33.0561V78.5875H38.147V70.2344L58.0967 52.1066ZM42.7085 72.2326V95.2009L61.5314 78.6112V55.1246L42.7085 72.2326ZM66.2186 78.3917V55.1025L85.0469 72.2115V83.0909H85.0711V94.9664L66.2186 78.3917ZM89.6272 78.5875H94.6939V52.1066H69.8399L89.6272 70.0467V78.5875ZM85.0415 47.6032V33.3589L69.5914 47.6032H85.0415ZM58.132 47.6032H42.6823V33.3589L58.132 47.6032Z" fill="white"/>
</g>
<defs>
<clipPath id="clip0_2002_752">
<rect width="128" height="128" fill="white"/>
</clipPath>
</defs>
</svg>
